<svg xmlns="http://www.w3.org/2000/svg" width="960" height="540" viewBox="0 0 960 540" role="img" aria-labelledby="title desc">
  <title id="title">ActionBridge meeting workspace preview</title>
  <desc id="desc">A simplified preview of the meeting note input and generated summary workspace.</desc>
  <rect width="960" height="540" fill="#f6f7fb"/>
  <rect x="28" y="28" width="180" height="484" rx="14" fill="#172033"/>
  <text x="56" y="76" fill="#ffffff" font-family="Arial, sans-serif" font-size="26" font-weight="700">ActionBridge</text>
  <rect x="52" y="124" width="116" height="28" rx="8" fill="#2f80ed"/>
  <rect x="52" y="174" width="126" height="20" rx="6" fill="#39445a"/>
  <rect x="52" y="214" width="104" height="20" rx="6" fill="#39445a"/>
  <rect x="240" y="54" width="310" height="432" rx="18" fill="#ffffff" stroke="#dde3ee"/>
  <text x="270" y="102" fill="#172033" font-family="Arial, sans-serif" font-size="28" font-weight="700">Meeting Input</text>
  <rect x="270" y="132" width="244" height="38" rx="8" fill="#eef3f8"/>
  <rect x="270" y="194" width="244" height="210" rx="10" fill="#f8fafc" stroke="#dfe6ef"/>
  <rect x="270" y="430" width="168" height="36" rx="10" fill="#2f80ed"/>
  <text x="294" y="454" fill="#ffffff" font-family="Arial, sans-serif" font-size="15" font-weight="700">Generate Summary</text>
  <rect x="590" y="54" width="330" height="432" rx="18" fill="#ffffff" stroke="#dde3ee"/>
  <text x="620" y="102" fill="#172033" font-family="Arial, sans-serif" font-size="28" font-weight="700">Structured Result</text>
  <rect x="620" y="136" width="250" height="44" rx="10" fill="#ecf7f1"/>
  <rect x="620" y="210" width="250" height="82" rx="10" fill="#fff8e8"/>
  <rect x="620" y="316" width="250" height="42" rx="10" fill="#f8fafc" stroke="#dfe6ef"/>
  <rect x="620" y="374" width="250" height="42" rx="10" fill="#f8fafc" stroke="#dfe6ef"/>
</svg>
